<svg xmlns="http://www.w3.org/2000/svg" width="32" height="32" viewBox="0 0 32 32"><path d="M22.89,2.72H18.26A3.25,3.25,0,0,0,15,6V8.36H13.38a3,3,0,0,0-3,3v2.13H8.68a2.81,2.81,0,0,0-2.81,2.81V26.47a2.81,2.81,0,0,0,2.81,2.81H22.89A3.25,3.25,0,0,0,26.13,26V6A3.25,3.25,0,0,0,22.89,2.72ZM18.42,8.36H16.9V6A1.36,1.36,0,0,1,18.26,4.6h4.63A1.36,1.36,0,0,1,24.25,6V26a1.36,1.36,0,0,1-1.36,1.37H21.22a2.9,2.9,0,0,0,.24-1.16V11.4A3,3,0,0,0,18.42,8.36Zm-4.25,5.17H12.22V11.4a1.15,1.15,0,0,1,1.16-1.15h5a1.15,1.15,0,0,1,1.16,1.15V26.24a1.16,1.16,0,0,1-1.16,1.16h-1.6a2.76,2.76,0,0,0,.16-.93V16.34A2.81,2.81,0,0,0,14.17,13.53Zm.93,2.81V26.47a.93.93,0,0,1-.93.93H8.68a.93.93,0,0,1-.93-.93V16.34a.93.93,0,0,1,.93-.93h5.49A.93.93,0,0,1,15.1,16.34Z"/><rect width="32" height="32" style="fill:none"/></svg>