<svg xmlns="http://www.w3.org/2000/svg" width="32" height="32" viewBox="0 0 32 32"><path d="M22.89,2.72H18.26A3.25,3.25,0,0,0,15,5.96c0,.0134,0,.0268,0,.04V8.36H13.38a3,3,0,0,0-3,3v2.13H8.68A2.81,2.81,0,0,0,5.87,16.3V26.47a2.81,2.81,0,0,0,2.81,2.81H22.89a3.25,3.25,0,0,0,3.24-3.26l0-.02V6a3.25,3.25,0,0,0-3.22-3.28ZM18.42,8.36H16.9V6a1.36,1.36,0,0,1,1.3194-1.3994c.0135,0,.0271-.0006.0406-.0006h4.63a1.36,1.36,0,0,1,1.3606,1.3594c0,.0135,0,.0271-.0006.0406V26a1.36,1.36,0,0,1-1.35,1.37H21.22a2.8985,2.8985,0,0,0,.24-1.16V11.4a3,3,0,0,0-2.96-3.04C18.4737,8.36,18.4468,8.36,18.42,8.36Zm-4.25,5.17H12.22V11.4a1.15,1.15,0,0,1,1.15-1.15h5.01a1.15,1.15,0,0,1,1.16,1.14V26.24a1.16,1.16,0,0,1-1.16,1.16h-1.6a2.7593,2.7593,0,0,0,.16-.93V16.34A2.81,2.81,0,0,0,14.17,13.53Zm.93,2.81V26.47a.93.93,0,0,1-.93.93H8.68a.93.93,0,0,1-.93-.93h0V16.34a.93.93,0,0,1,.93-.93h5.49a.93.93,0,0,1,.93.93Z" style="fill:#fff"/><rect width="32" height="32" style="fill:none"/></svg>