<svg xmlns="http://www.w3.org/2000/svg" viewBox="0 0 32 32"><rect width="32" height="32" style="fill:none"/><path d="M27.8339,5.54h0a2.624,2.624,0,0,0-.537-.8054,2.55,2.55,0,0,0-.8158-.537,2.3144,2.3144,0,0,0-.96-.1962H6.5513a2.4469,2.4469,0,0,0-1.0326.1962,2.6244,2.6244,0,0,0-.8055.537,2.55,2.55,0,0,0-.5369.8158,2.3748,2.3748,0,0,0-.2066.9706V25.48a2.5567,2.5567,0,0,0,1.549,2.3131,2.4166,2.4166,0,0,0,1.0326.2065h18.97a2.3227,2.3227,0,0,0,.96-.2065,2.55,2.55,0,0,0,.8158-.537,2.6232,2.6232,0,0,0,.537-.8055A2.438,2.438,0,0,0,28.03,25.48V6.51A2.3651,2.3651,0,0,0,27.8339,5.54ZM26.45,12.4686v7.0426H21.1321V12.4686Zm0,8.6225V25.48a.95.95,0,0,1-.9294.9293H21.1321v-5.318Zm-6.898,0v5.318H12.51v-5.318Zm0-8.6225v7.0426H12.51V12.4686ZM5.6116,19.5112V12.4686H10.93v7.0426Zm5.3181,1.58v5.318H6.5513a.95.95,0,0,1-.94-.9293V21.0911Z" style="fill:#424242"/></svg>